<svg width="20" height="20" viewBox="0 0 20 20" fill="none" xmlns="http://www.w3.org/2000/svg">
<path d="M11.6667 1.66699H8.33337V5.00033H11.6667V1.66699Z" fill="#FFD84D"/>
<path d="M8.33333 5H5V8.33333H8.33333V5Z" fill="#FFD84D"/>
<path d="M11.6667 5H8.33337V8.33333H11.6667V5Z" fill="#FFD84D"/>
<path d="M15 5H11.6666V8.33333H15V5Z" fill="#FFD84D"/>
<path d="M4.99996 8.33301H1.66663V11.6663H4.99996V8.33301Z" fill="#FFD84D"/>
<path d="M8.33333 8.33301H5V11.6663H8.33333V8.33301Z" fill="#FFD84D"/>
<path d="M11.6667 8.33301H8.33337V11.6663H11.6667V8.33301Z" fill="#FFD84D"/>
<path d="M15 8.33301H11.6666V11.6663H15V8.33301Z" fill="#FFD84D"/>
<path d="M18.3333 8.33301H15V11.6663H18.3333V8.33301Z" fill="#FFD84D"/>
<path d="M8.33333 11.667H5V15.0003H8.33333V11.667Z" fill="#FFD84D"/>
<path d="M11.6667 11.667H8.33337V15.0003H11.6667V11.667Z" fill="#FFD84D"/>
<path d="M15 11.667H11.6666V15.0003H15V11.667Z" fill="#FFD84D"/>
<path d="M11.6667 15H8.33337V18.3333H11.6667V15Z" fill="#FFD84D"/>
</svg>
